# xmcd
#
# Track frame offsets:
#	150
#	21425
#	47922
#	82331
#	104652
#	126121
#	168235
#	210820
#
# Disc length: 3184 seconds
#
# Revision: 1
# Processed by: cddbd v1.5.1PL0 Copyright (c) Steve Scherf et al.
# Submitted via: audiograbber 1.83.01
#
DISCID=6b0c6e08
DTITLE=Climax Blues Band - 1979 - Miami, Fl
DYEAR=1900
DGENRE=
TTITLE0=Money In Your Pocket
TTITLE1=Summer Rain
TTITLE2=Amerita - Sense Of Direction
TTITLE3=Evil
TTITLE4=Fallen In Love
TTITLE5=Seventh Son - Got My Mojo Workin'
TTITLE6=Watcha Feel
TTITLE7=All The Time In The World - Get Back
EXTD=
EXTT0=
EXTT1=
EXTT2=
EXTT3=
EXTT4=
EXTT5=
EXTT6=
EXTT7=
PLAYORDER=
